<svg width="45" height="45" viewBox="0 0 45 45" fill="none" xmlns="http://www.w3.org/2000/svg">
<path d="M28.125 4.6875V7.5C28.125 10.1513 28.125 11.4769 28.95 12.3C29.7712 13.125 31.0969 13.125 33.75 13.125H36.5625" stroke="#3A0CA3" stroke-width="2.8125" stroke-linecap="round" stroke-linejoin="round"/>
<path d="M15 20.625H30M15 26.25H30M15 31.875H22.8188M7.5 30V15C7.5 9.6975 7.5 7.04437 9.14813 5.39812C10.7944 3.75 13.4475 3.75 18.75 3.75H26.5725C27.3375 3.75 27.7219 3.75 28.0669 3.8925C28.41 4.035 28.6819 4.305 29.2238 4.84875L36.4012 12.0263C36.945 12.57 37.215 12.84 37.3575 13.185C37.5 13.5281 37.5 13.9125 37.5 14.6775V30C37.5 35.3025 37.5 37.9556 35.8519 39.6019C34.2056 41.25 31.5525 41.25 26.25 41.25H18.75C13.4475 41.25 10.7944 41.25 9.14813 39.6019C7.5 37.9556 7.5 35.3025 7.5 30Z" stroke="#3A0CA3" stroke-width="2.8125" stroke-linecap="round" stroke-linejoin="round"/>
</svg>
