<svg width="35" height="35" viewBox="0 0 35 35" fill="none" xmlns="http://www.w3.org/2000/svg">
<path d="M17.4999 32.0611C17.0989 32.0611 16.7241 31.9532 16.3741 31.7665L12.8172 29.6549C12.2849 29.3588 12.5518 29.2509 12.7122 29.1969C13.4356 28.9563 13.5697 28.9038 14.3179 28.478C14.3995 28.424 14.506 28.4488 14.5877 28.5028L17.3147 30.1361C17.4227 30.1886 17.5568 30.1886 17.637 30.1361L28.3106 23.9572C28.4185 23.9047 28.471 23.7967 28.471 23.6626V11.328C28.471 11.1953 28.4185 11.0874 28.3106 11.0349L17.637 4.88215C17.5306 4.8282 17.3964 4.8282 17.3147 4.88215L6.63828 11.0334C6.53182 11.0859 6.47786 11.2215 6.47786 11.3265V23.6597C6.47786 23.7661 6.53182 23.9017 6.63828 23.9542L9.55495 25.6415C11.1329 26.4407 12.1245 25.503 12.1245 24.5697V12.3984C12.1245 12.238 12.2572 12.0761 12.4454 12.0761H13.8104C13.9679 12.0761 14.1312 12.2103 14.1312 12.3984V24.5711C14.1312 26.6842 12.982 27.9165 10.9754 27.9165C10.3599 27.9165 9.8787 27.9165 8.5137 27.2457L5.70641 25.643C5.36437 25.4441 5.0805 25.159 4.88319 24.8161C4.68588 24.4732 4.58204 24.0845 4.58203 23.6888V11.3542C4.58203 10.5522 5.00932 9.80257 5.70641 9.40153L16.3756 3.22257C16.7219 3.03734 17.1086 2.94043 17.5014 2.94043C17.8942 2.94043 18.2809 3.03734 18.6272 3.22257L29.2979 9.40153C29.9964 9.80111 30.4222 10.5522 30.4222 11.3542V23.6888C30.4222 24.4894 29.995 25.239 29.2979 25.643L18.6272 31.8205C18.2758 31.9809 17.8747 32.0611 17.4999 32.0611ZM20.7899 23.5794C16.1087 23.5794 15.1462 21.4386 15.1462 19.6215C15.1462 19.4611 15.2804 19.2992 15.467 19.2992H16.8583C17.0187 19.2992 17.1514 19.4057 17.1514 19.5676C17.3658 20.9836 17.9797 21.6807 20.8177 21.6807C23.0635 21.6807 24.0289 21.1703 24.0289 19.9672C24.0289 19.2715 23.7591 18.764 20.2562 18.4169C17.341 18.1253 15.5224 17.4792 15.5224 15.1532C15.5224 12.9876 17.341 11.7028 20.3918 11.7028C23.8145 11.7028 25.5004 12.8826 25.7133 15.4478C25.7107 15.5343 25.6823 15.6182 25.6316 15.6884C25.5777 15.7409 25.4989 15.7949 25.4187 15.7949H24.0289C23.9602 15.7934 23.894 15.7691 23.8406 15.7258C23.7873 15.6825 23.7499 15.6226 23.7343 15.5557C23.412 14.0799 22.5837 13.6015 20.3918 13.6015C17.9287 13.6015 17.6341 14.4576 17.6341 15.0992C17.6341 15.8736 17.9797 16.1142 21.3004 16.543C24.5904 16.9703 26.142 17.5857 26.142 19.8884C26.1129 22.2436 24.1893 23.5794 20.7899 23.5794Z" fill="#F72585"/>
</svg>
