<svg width="35" height="35" viewBox="0 0 35 35" fill="none" xmlns="http://www.w3.org/2000/svg">
<path d="M5 17.125V30.25H31.25V4H5V17.125ZM26.1533 16.075C26.782 16.2209 27.3534 16.5497 27.7955 17.02C28.0388 17.2734 28.2504 17.5555 28.4255 17.86C28.4255 17.8936 27.2915 18.6601 26.6006 19.0885C26.5754 19.1053 26.4746 18.9961 26.3633 18.8302C26.2372 18.6126 26.058 18.4304 25.8424 18.3008C25.6268 18.1712 25.382 18.0983 25.1306 18.0889C24.3347 18.0343 23.8223 18.4522 23.8265 19.1389C23.8201 19.3099 23.8593 19.4794 23.9399 19.6303C24.1142 19.9936 24.4397 20.2099 25.4603 20.6509C27.3398 21.4594 28.1441 21.9928 28.6439 22.7509C29.2025 23.5909 29.3264 24.9475 28.9484 25.9513C28.5284 27.0433 27.4994 27.7846 26.0441 28.0303C25.3794 28.1065 24.7078 28.0994 24.0449 28.0093C23.0332 27.8452 22.0999 27.3634 21.38 26.6338C21.1385 26.3671 20.6681 25.672 20.6975 25.6216C20.774 25.5645 20.8547 25.5132 20.939 25.4683L21.905 24.9139L22.6589 24.4771L22.8164 24.7102C23.0823 25.0904 23.4205 25.4143 23.8118 25.6636C24.6518 26.1046 25.7984 26.0437 26.3654 25.5334C26.5558 25.3464 26.6745 25.0986 26.701 24.833C26.7275 24.5675 26.66 24.3011 26.5103 24.0802C26.3003 23.7883 25.8803 23.5426 24.7064 23.0302C23.3519 22.4464 22.7681 22.0852 22.2347 21.5098C21.9018 21.13 21.656 20.6821 21.5144 20.1973C21.4089 19.6434 21.3933 19.0761 21.4682 18.5173C21.7475 17.209 22.7282 16.2955 24.1604 16.0246C24.8237 15.9427 25.4955 15.9611 26.1533 16.0792V16.075ZM19.9919 17.1754V18.2506H16.5836V27.9589H14.1665V18.2485H10.7498V17.1985C10.7406 16.837 10.7504 16.4753 10.7792 16.1149C10.7918 16.0981 12.8792 16.0897 15.3992 16.0939H19.9793L19.9919 17.1754Z" fill="#F72585"/>
</svg>
