<svg width="30" height="30" viewBox="0 0 30 30" fill="none" xmlns="http://www.w3.org/2000/svg">
<path d="M6.83817 18.4961L9.2584 2.9237C9.27616 2.80838 9.32974 2.70156 9.41156 2.61837C9.49338 2.53517 9.59929 2.47981 9.7143 2.46013C9.82931 2.44044 9.9476 2.45741 10.0524 2.50866C10.1573 2.5599 10.2433 2.64281 10.2984 2.74566L12.9016 7.63154L6.83817 18.4961ZM24.0302 22.2744L21.7254 7.94343C21.7081 7.84313 21.6636 7.7495 21.5968 7.67268C21.53 7.59587 21.4435 7.53881 21.3466 7.50768C21.2497 7.47656 21.1461 7.47256 21.0471 7.49613C20.948 7.51969 20.8574 7.56992 20.7848 7.64136L6.25 22.2744L14.2929 26.8067C14.7975 27.0891 15.4127 27.0891 15.9174 26.8067L24.0302 22.2744ZM17.494 9.76811L15.6313 6.20347C15.5842 6.11399 15.5136 6.03907 15.427 5.9868C15.3404 5.93453 15.2412 5.90691 15.1401 5.90691C15.039 5.90691 14.9398 5.93453 14.8532 5.9868C14.7667 6.03907 14.696 6.11399 14.6489 6.20347L6.4698 20.8611L17.494 9.76811Z" fill="#F72585"/>
</svg>
