<svg width="35" height="35" viewBox="0 0 35 35" fill="none" xmlns="http://www.w3.org/2000/svg">
<path d="M26.9792 13.8684C25.8856 13.4917 24.9202 12.8144 24.1938 11.9142C23.3933 10.9112 22.3739 10.1046 21.2137 9.55612C20.0535 9.00762 18.7833 8.73176 17.5001 8.74963C15.7739 8.62739 14.0651 9.15978 12.7138 10.2408C11.3626 11.3218 10.4681 12.8721 10.2084 14.583C10.7198 13.7273 11.4895 13.0559 12.4067 12.6654C13.3239 12.275 14.3413 12.1855 15.3126 12.41C16.4044 12.7977 17.3682 13.4789 18.098 14.3788C18.9029 15.3738 19.9242 16.172 21.0842 16.7128C22.2441 17.2536 23.5121 17.5227 24.7917 17.4996C26.5179 17.6219 28.2267 17.0895 29.578 16.0085C30.9292 14.9275 31.8238 13.3772 32.0834 11.6663C31.5813 12.5322 30.8141 13.2137 29.895 13.6103C28.9759 14.0068 27.9537 14.0973 26.9792 13.8684ZM8.02092 21.1309C9.11459 21.5076 10.08 22.1848 10.8063 23.085C11.6069 24.088 12.6262 24.8946 13.7864 25.4431C14.9466 25.9916 16.2169 26.2675 17.5001 26.2496C19.2262 26.3719 20.9351 25.8395 22.2863 24.7585C23.6376 23.6775 24.5321 22.1272 24.7917 20.4163C24.2803 21.272 23.5107 21.9434 22.5935 22.3338C21.6763 22.7243 20.6588 22.8137 19.6876 22.5892C18.5957 22.2016 17.6319 21.5204 16.9022 20.6205C16.0951 19.6279 15.0733 18.8314 13.9139 18.2909C12.7545 17.7503 11.4875 17.4798 10.2084 17.4996C8.48228 17.3774 6.77343 17.9098 5.42217 18.9908C4.07091 20.0718 3.17639 21.6221 2.91675 23.333C3.41886 22.467 4.18609 21.7855 5.10517 21.389C6.02425 20.9925 7.04647 20.902 8.02092 21.1309Z" fill="#F72585"/>
</svg>
