<svg width="35" height="35" viewBox="0 0 35 35" fill="none" xmlns="http://www.w3.org/2000/svg">
<path d="M20.0376 6.16914C18.8126 4.71081 17.748 3.25247 17.5438 2.93164H17.5001C17.2959 3.23789 16.2313 4.71081 15.0063 6.16914C4.50635 19.5712 16.6688 28.6129 16.6688 28.6129L16.7709 28.6858C16.8584 30.0712 17.0918 32.0837 17.0918 32.0837H17.9959C17.9959 32.0837 18.2147 30.0858 18.3022 28.6858L18.4043 28.5983C18.4043 28.5983 30.5376 19.5712 20.0376 6.16914ZM17.5001 28.4087C17.2445 28.1988 17.0101 27.9643 16.8001 27.7087L17.5001 13.1254L18.1563 27.7087C17.9596 27.9618 17.7399 28.1961 17.5001 28.4087Z" fill="#F72585"/>
</svg>
