<svg width="35" height="35" viewBox="0 0 35 35" fill="none" xmlns="http://www.w3.org/2000/svg">
<path d="M31.5292 16.1995L18.7965 3.46973C18.4434 3.11823 17.9655 2.9209 17.4673 2.9209C16.969 2.9209 16.4911 3.11823 16.138 3.46973L13.4999 6.11077L16.8526 9.46494C17.2482 9.33128 17.6733 9.31114 18.0797 9.40682C18.4861 9.50249 18.8576 9.71014 19.152 10.0062C19.4464 10.3023 19.652 10.675 19.7454 11.0819C19.8387 11.4889 19.8162 11.9139 19.6803 12.3087L22.909 15.5418C23.3871 15.3741 23.9079 15.374 24.386 15.5416C24.8641 15.7092 25.2709 16.0345 25.5395 16.464C25.8081 16.8936 25.9226 17.4017 25.8641 17.9049C25.8056 18.4081 25.5776 18.8764 25.2176 19.2329C24.344 20.1079 22.9338 20.1079 22.0588 19.2329C21.748 18.9217 21.5357 18.526 21.4483 18.0949C21.3609 17.6639 21.4023 17.2167 21.5674 16.8091L18.5428 13.8006V21.7295C18.7557 21.8331 18.9599 21.976 19.1363 22.1524C19.5533 22.5723 19.7873 23.1401 19.7873 23.7318C19.7873 24.3236 19.5533 24.8913 19.1363 25.3112C18.9283 25.5196 18.6812 25.6849 18.4092 25.7977C18.1372 25.9105 17.8456 25.9686 17.5511 25.9686C17.2567 25.9686 16.9651 25.9105 16.6931 25.7977C16.4211 25.6849 16.174 25.5196 15.9659 25.3112C15.7583 25.1042 15.5936 24.8583 15.4812 24.5875C15.3688 24.3167 15.311 24.0264 15.311 23.7333C15.311 23.4401 15.3688 23.1498 15.4812 22.8791C15.5936 22.6083 15.7583 22.3624 15.9659 22.1554C16.1876 21.9366 16.4355 21.7704 16.7009 21.661V13.6547C16.4282 13.5431 16.1804 13.3785 15.9717 13.1705C15.763 12.9625 15.5976 12.7153 15.4851 12.443C15.3725 12.1707 15.315 11.8788 15.316 11.5841C15.3169 11.2895 15.3762 10.998 15.4905 10.7264L12.1947 7.41452L3.46362 16.1383C2.73446 16.8733 2.73446 18.0633 3.46362 18.7983L16.1963 31.5281C16.3705 31.7027 16.5775 31.8413 16.8053 31.9358C17.0332 32.0304 17.2775 32.0791 17.5241 32.0791C17.7708 32.0791 18.0151 32.0304 18.2429 31.9358C18.4708 31.8413 18.6777 31.7027 18.852 31.5281L31.5249 18.8566C31.7004 18.6829 31.8398 18.4761 31.9351 18.2482C32.0303 18.0204 32.0796 17.7759 32.08 17.529C32.0804 17.282 32.032 17.0374 31.9374 16.8092C31.8429 16.5811 31.7042 16.3738 31.5292 16.1995Z" fill="#F72585"/>
</svg>
