<svg width="45" height="45" viewBox="0 0 45 45" fill="none" xmlns="http://www.w3.org/2000/svg">
<path d="M18.75 38.565C12.3206 40.7344 6.96375 38.565 3.75 31.875" stroke="#3A0CA3" stroke-width="2.8125" stroke-linecap="round" stroke-linejoin="round"/>
<path d="M18.75 41.25V35.1712C18.75 34.05 19.095 33.075 19.65 32.1937C20.0325 31.59 19.77 30.7312 19.0819 30.5437C13.3763 28.9725 9.375 26.4506 9.375 18.0844C9.375 15.9094 10.0875 13.8656 11.34 12.0844C11.6512 11.6419 11.8087 11.4206 11.8462 11.2219C11.8837 11.0194 11.8181 10.7587 11.6869 10.2337C11.1562 8.10374 11.1919 5.84062 11.9869 3.80249C11.9869 3.80249 13.6313 3.26437 17.3756 5.60249C18.2306 6.13687 18.6581 6.40499 19.035 6.46499C19.4119 6.52499 19.9144 6.39937 20.9194 6.14812C22.3563 5.79186 23.8321 5.61612 25.3125 5.62499C26.7929 5.61867 28.2684 5.795 29.7056 6.14999C30.7106 6.40124 31.215 6.52499 31.5919 6.46687C31.9669 6.40687 32.3944 6.13874 33.2494 5.60437C36.9937 3.26624 38.6381 3.80437 38.6381 3.80437C39.4331 5.84249 39.4688 8.10562 38.9381 10.2356C38.8069 10.7606 38.7431 11.0231 38.7806 11.2219C38.8181 11.4206 38.9737 11.6437 39.285 12.0862C40.5375 13.8675 41.25 15.9112 41.25 18.0862C41.25 26.4525 37.2487 28.9744 31.5431 30.5419C30.855 30.7312 30.5925 31.59 30.975 32.1919C31.53 33.0731 31.875 34.0481 31.875 35.1712V41.25" stroke="#3A0CA3" stroke-width="2.8125" stroke-linecap="round" stroke-linejoin="round"/>
</svg>
