<svg width="45" height="45" viewBox="0 0 45 45" fill="none" xmlns="http://www.w3.org/2000/svg">
<path d="M13.1249 18.75V31.875M20.6249 24.375V31.875M20.6249 24.375C20.6249 23.6363 20.7704 22.9049 21.0531 22.2224C21.3358 21.5399 21.7501 20.9199 22.2724 20.3975C22.7948 19.8752 23.4149 19.4609 24.0973 19.1782C24.7798 18.8955 25.5112 18.75 26.2499 18.75C26.9886 18.75 27.7201 18.8955 28.4025 19.1782C29.085 19.4609 29.7051 19.8752 30.2274 20.3975C30.7497 20.9199 31.1641 21.5399 31.4467 22.2224C31.7294 22.9049 31.8749 23.6363 31.8749 24.375V31.875M20.6249 24.375V18.75M13.1399 13.125H13.123" stroke="#3A0CA3" stroke-width="2.8125" stroke-linecap="round" stroke-linejoin="round"/>
<path d="M4.6875 22.5C4.6875 14.1037 4.6875 9.90375 7.29563 7.29563C9.90375 4.6875 14.1019 4.6875 22.5 4.6875C30.8963 4.6875 35.0962 4.6875 37.7044 7.29563C40.3125 9.90375 40.3125 14.1019 40.3125 22.5C40.3125 30.8963 40.3125 35.0962 37.7044 37.7044C35.0962 40.3125 30.8981 40.3125 22.5 40.3125C14.1037 40.3125 9.90375 40.3125 7.29563 37.7044C4.6875 35.0962 4.6875 30.8981 4.6875 22.5Z" stroke="#3A0CA3" stroke-width="2.8125" stroke-linecap="round" stroke-linejoin="round"/>
</svg>
